<svg width="220" height="64" viewBox="0 0 220 64" fill="none" xmlns="http://www.w3.org/2000/svg">
    <defs data-v-423bf9ae="">
        <linearGradient data-v-423bf9ae="" gradientTransform="rotate(25)" id="755c9cc3-6a7c-4dba-aa59-e006b5cdcb8f"
                        x1="0%" y1="0%" x2="100%" y2="0%">
            <stop data-v-423bf9ae="" offset="0%" style="stop-color: rgb(233, 13, 218); stop-opacity: 1;"></stop>
            <stop data-v-423bf9ae="" offset="100%" style="stop-color: rgb(21, 207, 241); stop-opacity: 1;"></stop>
        </linearGradient>
    </defs>
    <g data-v-423bf9ae="" id="d322d6f5-0a5f-42f8-8b97-5f461f04d7f3" fill="url(#755c9cc3-6a7c-4dba-aa59-e006b5cdcb8f)"
       transform="matrix(4.081632441221876,0,0,4.081632441221876,-1.1836712792751882,-12.89795862617187)">
        <path d="M0.29 17.86L0.29 17.58L1.27 17.44L1.27 7.08L0.29 6.94L0.29 6.66L2.67 6.66L2.67 8.13L2.67 8.13Q3.02 7.38 3.62 6.95L3.62 6.95L3.62 6.95Q4.21 6.52 5.04 6.52L5.04 6.52L5.04 6.52Q6.03 6.52 6.79 6.99L6.79 6.99L6.79 6.99Q7.55 7.46 7.97 8.31L7.97 8.31L7.97 8.31Q8.39 9.16 8.39 10.29L8.39 10.29L8.39 10.29Q8.39 11.42 7.97 12.27L7.97 12.27L7.97 12.27Q7.55 13.12 6.79 13.58L6.79 13.58L6.79 13.58Q6.03 14.04 5.04 14.04L5.04 14.04L5.04 14.04Q4.21 14.04 3.62 13.62L3.62 13.62L3.62 13.62Q3.02 13.19 2.67 12.45L2.67 12.45L2.67 17.44L3.99 17.58L3.99 17.86L0.29 17.86ZM4.90 13.69L4.90 13.69Q6.85 13.69 6.85 10.99L6.85 10.99L6.85 9.59L6.85 9.59Q6.85 6.87 4.90 6.87L4.90 6.87L4.90 6.87Q4.28 6.87 3.78 7.23L3.78 7.23L3.78 7.23Q3.28 7.59 2.98 8.19L2.98 8.19L2.98 8.19Q2.69 8.79 2.67 9.49L2.67 9.49L2.67 10.99L2.67 10.99Q2.67 11.70 2.96 12.33L2.96 12.33L2.96 12.33Q3.25 12.95 3.76 13.32L3.76 13.32L3.76 13.32Q4.27 13.69 4.90 13.69L4.90 13.69ZM9.37 13.90L9.37 13.62L10.35 13.48L10.35 7.07L9.37 6.93L9.37 6.65L11.75 6.65L11.75 7.73L11.75 7.73Q12.63 6.52 13.73 6.52L13.73 6.52L13.73 6.52Q14.27 6.52 14.67 6.80L14.67 6.80L14.67 6.80Q15.08 7.07 15.08 7.57L15.08 7.57L15.08 7.57Q15.08 7.94 14.84 8.18L14.84 8.18L14.84 8.18Q14.60 8.43 14.21 8.43L14.21 8.43L14.21 8.43Q13.76 8.43 13.48 8.08L13.48 8.08L13.48 8.08Q13.64 7.88 13.64 7.66L13.64 7.66L13.64 7.66Q13.64 7.42 13.47 7.27L13.47 7.27L13.47 7.27Q13.31 7.13 13.05 7.13L13.05 7.13L13.05 7.13Q12.75 7.13 12.45 7.40L12.45 7.40L12.45 7.40Q12.14 7.67 11.75 8.25L11.75 8.25L11.75 13.48L12.87 13.62L12.87 13.90L9.37 13.90ZM17.05 5.03L17.05 5.03Q16.66 5.03 16.38 4.75L16.38 4.75L16.38 4.75Q16.10 4.48 16.10 4.09L16.10 4.09L16.10 4.09Q16.10 3.70 16.37 3.43L16.37 3.43L16.37 3.43Q16.65 3.16 17.05 3.16L17.05 3.16L17.05 3.16Q17.43 3.16 17.70 3.43L17.70 3.43L17.70 3.43Q17.96 3.70 17.96 4.09L17.96 4.09L17.96 4.09Q17.96 4.48 17.70 4.75L17.70 4.75L17.70 4.75Q17.43 5.03 17.05 5.03L17.05 5.03ZM18.93 13.90L15.57 13.90L15.57 13.62L16.55 13.48L16.55 7.08L15.57 6.94L15.57 6.66L17.95 6.66L17.95 13.48L18.93 13.62L18.93 13.90ZM22.58 14.04L22.58 14.04Q21.43 14.04 20.66 13.55L20.66 13.55L20.66 13.55Q19.89 13.06 19.89 12.28L19.89 12.28L19.89 12.28Q19.89 11.87 20.11 11.64L20.11 11.64L20.11 11.64Q20.33 11.41 20.69 11.41L20.69 11.41L20.69 11.41Q20.97 11.41 21.17 11.55L21.17 11.55L21.17 11.55Q21.36 11.69 21.45 11.94L21.45 11.94L21.45 11.94Q21.14 12.28 21.14 12.66L21.14 12.66L21.14 12.66Q21.14 13.09 21.53 13.41L21.53 13.41L21.53 13.41Q21.92 13.73 22.58 13.73L22.58 13.73L22.58 13.73Q23.46 13.73 24.02 13.34L24.02 13.34L24.02 13.34Q24.58 12.94 24.58 12.26L24.58 12.26L24.58 12.26Q24.58 11.87 24.35 11.68L24.35 11.68L24.35 11.68Q24.11 11.48 23.42 11.23L23.42 11.23L21.31 10.46L21.31 10.46Q20.06 10.01 20.06 8.79L20.06 8.79L20.06 8.79Q20.06 7.80 20.75 7.16L20.75 7.16L20.75 7.16Q21.43 6.52 22.64 6.52L22.64 6.52L22.64 6.52Q23.63 6.52 24.34 6.98L24.34 6.98L24.34 6.98Q25.05 7.43 25.05 8.27L25.05 8.27L25.05 8.27Q25.05 8.61 24.86 8.81L24.86 8.81L24.86 8.81Q24.68 9.02 24.39 9.02L24.39 9.02L24.39 9.02Q24.09 9.02 23.90 8.86L23.90 8.86L23.90 8.86Q23.72 8.69 23.72 8.41L23.72 8.41L23.72 8.41Q23.90 8.27 23.97 8.11L23.97 8.11L23.97 8.11Q24.04 7.95 24.04 7.73L24.04 7.73L24.04 7.73Q24.04 7.34 23.69 7.08L23.69 7.08L23.69 7.08Q23.35 6.83 22.64 6.83L22.64 6.83L22.64 6.83Q22.02 6.83 21.58 7.02L21.58 7.02L21.58 7.02Q21.14 7.21 20.92 7.52L20.92 7.52L20.92 7.52Q20.69 7.83 20.69 8.15L20.69 8.15L20.69 8.15Q20.69 8.48 20.94 8.68L20.94 8.68L20.94 8.68Q21.18 8.88 21.84 9.11L21.84 9.11L23.80 9.81L23.80 9.81Q24.49 10.07 24.84 10.51L24.84 10.51L24.84 10.51Q25.19 10.96 25.19 11.68L25.19 11.68L25.19 11.68Q25.19 12.70 24.54 13.37L24.54 13.37L24.54 13.37Q23.90 14.04 22.58 14.04L22.58 14.04ZM29.16 14.04L29.16 14.04Q28.24 14.04 27.68 13.58L27.68 13.58L27.68 13.58Q27.13 13.12 27.13 12.11L27.13 12.11L27.13 7.07L26.14 6.93L26.14 6.65L27.13 6.65L27.13 5.49L28.53 5.14L28.53 6.65L30.35 6.65L30.35 6.93L28.53 7.07L28.53 12.08L28.53 12.08Q28.53 13.57 29.60 13.57L29.60 13.57L29.60 13.57Q29.82 13.57 30.02 13.50L30.02 13.50L30.02 13.50Q30.23 13.43 30.34 13.36L30.34 13.36L30.34 13.36Q30.46 13.29 30.49 13.26L30.49 13.26L30.67 13.48L30.67 13.48Q30.04 14.04 29.16 14.04L29.16 14.04ZM32.62 5.03L32.62 5.03Q32.23 5.03 31.95 4.75L31.95 4.75L31.95 4.75Q31.67 4.48 31.67 4.09L31.67 4.09L31.67 4.09Q31.67 3.70 31.94 3.43L31.94 3.43L31.94 3.43Q32.21 3.16 32.62 3.16L32.62 3.16L32.62 3.16Q33.00 3.16 33.26 3.43L33.26 3.43L33.26 3.43Q33.53 3.70 33.53 4.09L33.53 4.09L33.53 4.09Q33.53 4.48 33.26 4.75L33.26 4.75L33.26 4.75Q33.00 5.03 32.62 5.03L32.62 5.03ZM34.50 13.90L31.14 13.90L31.14 13.62L32.12 13.48L32.12 7.08L31.14 6.94L31.14 6.66L33.52 6.66L33.52 13.48L34.50 13.62L34.50 13.90ZM35.17 13.90L35.17 13.62L36.15 13.48L36.15 7.07L35.17 6.93L35.17 6.65L37.55 6.65L37.55 8.16L37.55 8.16Q38.07 7.41 38.77 6.97L38.77 6.97L38.77 6.97Q39.47 6.52 40.28 6.52L40.28 6.52L40.28 6.52Q41.29 6.52 41.87 7.03L41.87 7.03L41.87 7.03Q42.45 7.53 42.45 8.53L42.45 8.53L42.45 13.48L43.43 13.62L43.43 13.90L40.21 13.90L40.21 13.62L41.05 13.48L41.05 8.55L41.05 8.55Q41.05 7.83 40.75 7.43L40.75 7.43L40.75 7.43Q40.46 7.03 39.84 7.03L39.84 7.03L39.84 7.03Q39.20 7.03 38.60 7.50L38.60 7.50L38.60 7.50Q38.01 7.97 37.55 8.65L37.55 8.65L37.55 13.48L38.39 13.62L38.39 13.90L35.17 13.90ZM47.98 14.04L47.98 14.04Q46.94 14.04 46.10 13.57L46.10 13.57L46.10 13.57Q45.26 13.10 44.77 12.25L44.77 12.25L44.77 12.25Q44.28 11.40 44.28 10.28L44.28 10.28L44.28 10.28Q44.28 9.16 44.77 8.31L44.77 8.31L44.77 8.31Q45.25 7.46 46.07 6.99L46.07 6.99L46.07 6.99Q46.89 6.52 47.89 6.52L47.89 6.52L47.89 6.52Q48.78 6.52 49.48 6.92L49.48 6.92L49.48 6.92Q50.18 7.31 50.57 8.00L50.57 8.00L50.57 8.00Q50.96 8.69 50.97 9.59L50.97 9.59L45.82 9.59L45.82 10.98L45.82 10.98Q45.82 12.21 46.38 12.97L46.38 12.97L46.38 12.97Q46.93 13.73 47.98 13.73L47.98 13.73L47.98 13.73Q48.94 13.73 49.69 13.19L49.69 13.19L49.69 13.19Q50.43 12.64 50.60 11.77L50.60 11.77L50.92 11.77L50.92 11.77Q50.72 12.81 49.92 13.43L49.92 13.43L49.92 13.43Q49.13 14.04 47.98 14.04L47.98 14.04ZM45.84 9.24L49.43 9.24L49.43 9.24Q49.43 8.02 49.06 7.43L49.06 7.43L49.06 7.43Q48.68 6.83 47.88 6.83L47.88 6.83L47.88 6.83Q46.94 6.83 46.42 7.49L46.42 7.49L46.42 7.49Q45.91 8.15 45.84 9.24L45.84 9.24Z"></path>
    </g>
</svg>